<svg width="42" height="42" viewBox="0 0 42 42" fill="none" xmlns="http://www.w3.org/2000/svg">
<path d="M16.8 6.3C16.8 15.5783 9.27835 23.1 0 23.1C9.27835 23.1 16.8 30.6214 16.8 39.9C16.8 30.6214 24.3216 23.1 33.6 23.1C24.3216 23.1 16.8 15.5783 16.8 6.3Z" fill="url(#paint0_linear_201_619)"/>
<path d="M31.5 2.1C31.5 6.73917 27.7392 10.5 23.1 10.5C27.7392 10.5 31.5 14.2607 31.5 18.9C31.5 14.2607 35.2608 10.5 39.9 10.5C35.2608 10.5 31.5 6.73917 31.5 2.1Z" fill="url(#paint1_linear_201_619)"/>
<defs>
<linearGradient id="paint0_linear_201_619" x1="5.92941" y1="11.9" x2="32.8152" y2="29.9293" gradientUnits="userSpaceOnUse">
<stop stop-color="#00D5F6"/>
<stop offset="0.4" stop-color="#8C3EF2"/>
<stop offset="0.8" stop-color="#F335E6"/>
<stop offset="1" stop-color="#FF863F"/>
</linearGradient>
<linearGradient id="paint1_linear_201_619" x1="6.29998" y1="19.95" x2="32.84" y2="23.4557" gradientUnits="userSpaceOnUse">
<stop stop-color="#31BCFF"/>
<stop offset="0.330957" stop-color="#9676FF"/>
<stop offset="0.444948" stop-color="#BE64FE"/>
<stop offset="0.547088" stop-color="#E157CB"/>
<stop offset="0.669224" stop-color="#EF5794"/>
<stop offset="0.80036" stop-color="#FD683F"/>
<stop offset="0.911108" stop-color="#FE7C2B"/>
<stop offset="1" stop-color="#FFA10B"/>
</linearGradient>
</defs>
</svg>
